<svg id="tips" xmlns="http://www.w3.org/2000/svg" width="201.6" height="201.6" viewBox="0 0 201.6 201.6">
  <path id="路径_1" data-name="路径 1" d="M100.8,0A100.8,100.8,0,1,0,201.6,100.8,100.8,100.8,0,0,0,100.8,0Z" fill="#707070"/>
  <path id="路径_2" data-name="路径 2" d="M400.371,312.342a9.907,9.907,0,1,1,9.53-9.9,9.907,9.907,0,0,1-9.53,9.9ZM366.517,341.66c-4.824,4,13.277-18.72,19.757-22.752s17.957-.979,16.373,8.323S391,370.547,388.707,378.639s14.112-7.5,17.352-9.475-12.384,18.346-19.786,22.622-18.461-1.512-16.272-9.259,10.368-36.72,13.709-48.211-12.384,3.341-17.194,7.344Z" transform="translate(-293.711 -234.942)" fill="#b7b7b7"/>
</svg>
