<svg xmlns="http://www.w3.org/2000/svg" width="201.6" height="201.6" viewBox="0 0 201.6 201.6">
  <path id="warning" d="M169.056,68.256a100.8,100.8,0,1,1-100.8,100.8A100.8,100.8,0,0,1,169.056,68.256Zm.487,131.817h-.974a7.269,7.269,0,0,0-7.269,7.269v.967a7.269,7.269,0,0,0,7.269,7.269h.974a7.269,7.269,0,0,0,7.269-7.269v-.967A7.269,7.269,0,0,0,169.543,200.073Zm0-77.539h-.974A7.269,7.269,0,0,0,161.3,129.8v55.245a7.269,7.269,0,0,0,7.269,7.269h.974a7.269,7.269,0,0,0,7.269-7.269V129.8A7.269,7.269,0,0,0,169.543,122.534Z" transform="translate(-68.256 -68.256)" fill="#e29835"/>
</svg>
