<svg xmlns="http://www.w3.org/2000/svg" width="201.6" height="201.6" viewBox="0 0 201.6 201.6">
  <path id="error" d="M203.2,102.4c-55.44,0-100.8,45.36-100.8,100.8S147.76,304,203.2,304,304,258.64,304,203.2,258.64,102.4,203.2,102.4Zm45.36,133.56c3.78,3.78,3.78,8.82,0,12.6s-8.82,3.78-12.6,0L203.2,215.8l-32.76,32.76c-3.78,3.78-8.82,3.78-12.6,0s-3.78-8.82,0-12.6L190.6,203.2l-32.76-32.76c-3.78-3.78-3.78-8.82,0-12.6s8.82-3.78,12.6,0L203.2,190.6l32.76-32.76c3.78-3.78,8.82-3.78,12.6,0s3.78,8.82,0,12.6L215.8,203.2Z" transform="translate(-102.4 -102.4)" fill="#ff1f00"/>
</svg>
