<svg t="1631519500159" class="icon" viewBox="0 0 1024 1024" version="1.1" xmlns="http://www.w3.org/2000/svg" p-id="2882" width="200" height="200"><path d="M185.89696 532.2752l286.72 0 0 286.72c0 11.32544 9.17504 20.48 20.48 20.48s20.48-9.15456 20.48-20.48l0-286.72 286.72 0c11.30496 0 20.48-9.15456 20.48-20.48s-9.17504-20.48-20.48-20.48l-286.72 0 0-286.72c0-11.32544-9.17504-20.48-20.48-20.48s-20.48 9.15456-20.48 20.48l0 286.72-286.72 0c-11.30496 0-20.48 9.15456-20.48 20.48S174.592 532.2752 185.89696 532.2752z" p-id="2883" fill="#999999"></path></svg>